<svg xmlns="http://www.w3.org/2000/svg" viewBox="0 0 512 512">
<rect width="512" height="512" rx="96" fill="#0A1B2E"></rect>
<defs><radialGradient id="g" cx="50%" cy="90%" r="80%"><stop offset="0%" stop-color="#3B8BED"></stop><stop offset="60%" stop-color="#1859A8"></stop><stop offset="100%" stop-color="#14365C"></stop></radialGradient></defs>
<path d="M96 320 Q96 96 256 96 Q416 96 416 320 L416 360 L96 360 Z" fill="url(#g)"></path>
<path d="M96 320 Q96 96 256 96 Q416 96 416 320" fill="none" stroke="#FFFFFF" stroke-width="3" opacity=".3"></path>
<path d="M 256 48 L 272 96 L 322 100 L 284 132 L 298 180 L 256 154 L 214 180 L 228 132 L 190 100 L 240 96 Z" fill="#FFFFFF"></path>
<g transform="translate(256, 300)">
<ellipse cx="0" cy="40" rx="150" ry="6" fill="#0A1B2E" opacity=".35"></ellipse>
<path d="M -150 32 L -150 -30 Q -150 -62 -118 -68 L -70 -78 Q -55 -82 -38 -82 L 112 -82 Q 136 -82 146 -64 L 148 -28 L 148 32 Z" fill="#14365C" stroke="#0A1B2E" stroke-width="5" stroke-linejoin="round"></path>
<path d="M -126 -26 L -126 -52 Q -126 -64 -110 -68 L -72 -76 Q -56 -80 -40 -80 L 100 -80 Q 118 -80 128 -64 L 130 -26 Z" fill="#1859A8"></path>
<line x1="-80" y1="-74" x2="-80" y2="-26" stroke="#14365C" stroke-width="4"></line>
<line x1="-32" y1="-78" x2="-32" y2="-26" stroke="#14365C" stroke-width="4"></line>
<line x1="32" y1="-78" x2="32" y2="-26" stroke="#14365C" stroke-width="4"></line>
<path d="M -140 -6 L 140 -6 L 138 16 L -138 16 Z" fill="#1859A8"></path>
<path d="M 140 -16 L 148 -16 L 148 -2 L 140 -2 Z" fill="#FFFFFF" opacity=".9"></path>
<circle cx="-92" cy="36" r="22" fill="#0A1B2E"></circle><circle cx="-92" cy="36" r="11" fill="#1859A8"></circle><circle cx="-92" cy="36" r="4" fill="#FFFFFF"></circle>
<circle cx="92" cy="36" r="22" fill="#0A1B2E"></circle><circle cx="92" cy="36" r="11" fill="#1859A8"></circle><circle cx="92" cy="36" r="4" fill="#FFFFFF"></circle>
</g>
</svg>