<svg xmlns="http://www.w3.org/2000/svg" viewBox="0 0 600 720">
<defs>
<radialGradient id="domeG" cx="50%" cy="90%" r="80%">
<stop offset="0%" stop-color="#0A1B2E"></stop><stop offset="60%" stop-color="#0A1B2E"></stop><stop offset="100%" stop-color="#0A1B2E"></stop>
</radialGradient>
<clipPath id="domeClip"><path d="M130 340 Q 130 140 300 140 Q 470 140 470 340 L 470 400 L 130 400 Z"></path></clipPath>
</defs>
<g transform="translate(105,175) rotate(-35 55 40)">
<rect x="50" y="-40" width="14" height="48" rx="4" fill="#0A1B2E" stroke="#0A1B2E" stroke-width="4"></rect>
<circle cx="57" cy="-42" r="8" fill="#0A1B2E" stroke="#0A1B2E" stroke-width="4"></circle>
<rect x="8" y="6" width="96" height="40" rx="7" fill="#0A1B2E" stroke="#0A1B2E" stroke-width="4.5"></rect>
<rect x="14" y="10" width="84" height="14" rx="3" fill="#0A1B2E" opacity=".6"></rect>
<rect x="16" y="46" width="5" height="14" fill="#0A1B2E"></rect><rect x="25" y="46" width="5" height="14" fill="#0A1B2E"></rect><rect x="34" y="46" width="5" height="14" fill="#0A1B2E"></rect><rect x="43" y="46" width="5" height="14" fill="#0A1B2E"></rect><rect x="52" y="46" width="5" height="14" fill="#0A1B2E"></rect><rect x="61" y="46" width="5" height="14" fill="#0A1B2E"></rect><rect x="70" y="46" width="5" height="14" fill="#0A1B2E"></rect><rect x="79" y="46" width="5" height="14" fill="#0A1B2E"></rect><rect x="88" y="46" width="5" height="14" fill="#0A1B2E"></rect><rect x="97" y="46" width="5" height="14" fill="#0A1B2E"></rect>
</g>
<g transform="translate(60,320)">
<rect x="0" y="0" width="44" height="20" rx="3" fill="#0A1B2E" stroke="#0A1B2E" stroke-width="3.5"></rect>
<rect x="17" y="20" width="10" height="56" rx="3" fill="#0A1B2E" stroke="#0A1B2E" stroke-width="3.5"></rect>
<rect x="11" y="72" width="22" height="14" rx="2.5" fill="#0A1B2E" stroke="#0A1B2E" stroke-width="3.5"></rect>
</g>
<g transform="translate(360,175) rotate(10 80 30)">
<rect x="0" y="12" width="130" height="22" rx="5" fill="#0A1B2E" stroke="#0A1B2E" stroke-width="4.5"></rect>
<rect x="-16" y="16" width="18" height="14" rx="2.5" fill="#0A1B2E" stroke="#0A1B2E" stroke-width="4"></rect>
<rect x="95" y="4" width="42" height="42" rx="6" fill="#0A1B2E" stroke="#0A1B2E" stroke-width="4.5"></rect>
<path d="M112 46 L 116 92 Q 118 102 128 102 L 142 102 Q 151 102 150 92 L 145 46 Z" fill="#0A1B2E" stroke="#0A1B2E" stroke-width="4.5" stroke-linejoin="round"></path>
<path d="M108 50 L 104 72 L 115 74 Z" fill="#0A1B2E"></path>
<g stroke="#FFFFFF" stroke-width="4" stroke-linecap="round" fill="none">
<path d="M-22 22 L -54 12"></path><path d="M-22 22 L -56 24"></path><path d="M-22 22 L -52 40"></path>
</g>
</g>
<g transform="translate(498,310)">
<rect x="4" y="0" width="28" height="14" rx="2.5" fill="#0A1B2E" stroke="#0A1B2E" stroke-width="3.5"></rect>
<rect x="12" y="14" width="12" height="10" fill="#0A1B2E" stroke="#0A1B2E" stroke-width="3.5"></rect>
<path d="M0 24 L 36 24 L 38 80 Q 38 88 30 88 L 6 88 Q -2 88 -2 80 Z" fill="#0A1B2E" stroke="#0A1B2E" stroke-width="3.5" stroke-linejoin="round"></path>
<rect x="7" y="50" width="22" height="18" rx="2" fill="#FFFFFF"></rect>
</g>
<path d="M 110 350 Q 110 125 300 125 Q 490 125 490 350 L 490 400 Q 540 404 540 440 L 540 590 Q 540 630 500 630 L 330 630 L 300 665 L 270 630 L 100 630 Q 60 630 60 590 L 60 440 Q 60 404 110 400 Z" fill="#0A1B2E"></path>
<path d="M 128 353 Q 128 143 300 143 Q 472 143 472 353 L 472 398 L 128 398 Z" fill="#0A1B2E"></path>
<path d="M 140 380 Q 140 155 300 155 Q 460 155 460 380 Z" fill="url(#domeG)"></path>
<path d="M 140 380 Q 140 155 300 155 Q 460 155 460 380" fill="none" stroke="#FFFFFF" stroke-width="2.5" opacity=".3"></path>
<g clip-path="url(#domeClip)">
<g transform="translate(195, 225)">
<circle r="22" fill="#0A1B2E" stroke="#FFFFFF" stroke-width="3.5"></circle>
<path d="M -9 0 L -2 8 L 10 -7" fill="none" stroke="#FFFFFF" stroke-width="5" stroke-linecap="round" stroke-linejoin="round"></path>
</g>
<path d="M 260 216 L 262.52 222.48 L 269 225 L 262.52 227.52 L 260 234 L 257.48 227.52 L 251 225 L 257.48 222.48 Z" fill="#FFFFFF"></path><path d="M 295 238 L 296.96 243.04 L 302 245 L 296.96 246.96 L 295 252 L 293.04 246.96 L 288 245 L 293.04 243.04 Z" fill="#FFFFFF"></path><path d="M 332 220 L 334.8 227.2 L 342 230 L 334.8 232.8 L 332 240 L 329.2 232.8 L 322 230 L 329.2 227.2 Z" fill="#FFFFFF"></path><path d="M 372 241 L 373.96 246.04 L 379 248 L 373.96 249.96 L 372 255 L 370.04 249.96 L 365 248 L 370.04 246.04 Z" fill="#FFFFFF"></path><path d="M 395 223 L 397.52 229.48 L 404 232 L 397.52 234.52 L 395 241 L 392.48 234.52 L 386 232 L 392.48 229.48 Z" fill="#FFFFFF"></path><path d="M 230 267 L 232.24 272.76 L 238 275 L 232.24 277.24 L 230 283 L 227.76 277.24 L 222 275 L 227.76 272.76 Z" fill="#FFFFFF"></path><path d="M 415 282 L 417.24 287.76 L 423 290 L 417.24 292.24 L 415 298 L 412.76 292.24 L 407 290 L 412.76 287.76 Z" fill="#FFFFFF"></path><path d="M 180 308 L 181.96 313.04 L 187 315 L 181.96 316.96 L 180 322 L 178.04 316.96 L 173 315 L 178.04 313.04 Z" fill="#FFFFFF"></path>
<g transform="translate(300, 360)">
<ellipse cx="0" cy="22" rx="145" ry="5" fill="#0A1B2E" opacity=".4"></ellipse>
<path d="M -145 18 L -145 -28 Q -145 -58 -115 -64 L -70 -72 Q -55 -76 -38 -76 L 108 -76 Q 132 -76 142 -60 L 145 -28 L 145 18 Z" fill="#0A1B2E" stroke="#0A1B2E" stroke-width="4.5" stroke-linejoin="round"></path>
<path d="M -124 -24 L -124 -48 Q -124 -60 -108 -63 L -72 -70 Q -56 -74 -40 -74 L 96 -74 Q 116 -74 124 -60 L 126 -24 Z" fill="#0A1B2E"></path>
<line x1="-78" y1="-72" x2="-78" y2="-24" stroke="#14365C" stroke-width="4"></line>
<line x1="-32" y1="-74" x2="-32" y2="-24" stroke="#14365C" stroke-width="4"></line>
<line x1="32" y1="-74" x2="32" y2="-24" stroke="#14365C" stroke-width="4"></line>
<path d="M -138 -4 L 138 -4 L 135 14 L -135 14 Z" fill="#0A1B2E"></path>
<path d="M -90 4 L 90 4" stroke="#3B8BED" stroke-width="2.5" opacity=".85"></path>
<line x1="12" y1="-24" x2="12" y2="14" stroke="#0A1B2E" stroke-width="2"></line>
<circle cx="18" cy="-6" r="2" fill="#0A1B2E"></circle>
<path d="M 135 -14 L 144 -14 L 144 -2 L 135 -2 Z" fill="#FFFFFF" opacity=".9"></path>
<circle cx="-90" cy="22" r="18" fill="#0A1B2E"></circle><circle cx="-90" cy="22" r="9" fill="#0A1B2E"></circle><circle cx="-90" cy="22" r="3.5" fill="#FFFFFF"></circle>
<circle cx="90" cy="22" r="18" fill="#0A1B2E"></circle><circle cx="90" cy="22" r="9" fill="#0A1B2E"></circle><circle cx="90" cy="22" r="3.5" fill="#FFFFFF"></circle>
</g>
</g>
<g transform="translate(300, 135)">
<path d="M 0 -42 L 12 -13 L 43 -10 L 19 10 L 28 40 L 0 24 L -28 40 L -19 10 L -43 -10 L -12 -13 Z" fill="#0A1B2E"></path>
<path d="M 0 -33 L 9.5 -10 L 34 -8 L 15 8 L 22 32 L 0 19 L -22 32 L -15 8 L -34 -8 L -9.5 -10 Z" fill="#FFFFFF"></path>
</g>
<rect x="95" y="410" width="410" height="170" rx="6" fill="#FFFFFF" stroke="#0A1B2E" stroke-width="4.5"></rect>
<ellipse cx="140" cy="432" rx="14" ry="3" fill="#0A1B2E"></ellipse>
<ellipse cx="460" cy="432" rx="14" ry="3" fill="#0A1B2E"></ellipse>
<text x="300" y="480" font-family="Poppins, Impact, sans-serif" font-weight="900" font-size="54" fill="#0A1B2E" text-anchor="middle" letter-spacing="1">PARK &amp;</text>
<text x="300" y="548" font-family="Poppins, Impact, sans-serif" font-weight="900" font-size="68" fill="#0A1B2E" text-anchor="middle" letter-spacing="2">WASH</text>
<path d="M 150 585 L 450 585 L 450 618 L 300 635 L 150 618 Z" fill="#0A1B2E" stroke="#0A1B2E" stroke-width="4.5" stroke-linejoin="round"></path>
<text x="300" y="609" font-family="Poppins, sans-serif" font-weight="800" font-size="18" fill="#FFFFFF" text-anchor="middle" letter-spacing="4">MOBILE DETAILING</text>
</svg>